PathFileType	4	(X/Y/Z)	D:/ViconDB/Teaching_2017/Workshops/171025_A1_Demo01/Demo/171025_Guy_ROM_body_01_unlab.trc
DataRate	CameraRate	NumFrames	NumMarkers	Units	OrigDataRate	OrigDataStartFrame	OrigNumFrames
120.000000	120.000000	4	1	mm	120.000000	1	120
Frame#	Time	Unlabeled_Markers			
		X0	Y0	Z0	
1	0.008333				163.463760	84.088242	96.058968	-35.285671	1842.779297	-31.948660	-178.014404	79.209549	83.115616	129.272583	67.329964	-191.549225	126.752808	85.802460	51.369972	-204.361542	76.951958	27.054718	238.443268	1221.555786	-73.215912	-124.368843	76.061470	42.829418	-116.433800	75.532661	-194.738754	143.786240	1500.993530	-120.194183	179.595749	123.959084	-135.358017	207.943268	79.517120	42.347279	-6.692875	1552.429688	-110.582649	-179.121460	127.030632	-146.590988	-306.823090	865.727539	36.232292	195.857483	332.533905	-94.840965	263.867950	927.618835	32.794502	263.884979	1169.154785	-13.524562	-168.734253	1500.269409	-119.834106	66.063782	1733.518311	-55.244747	-239.180222	1207.143799	-115.626671	-199.236893	412.524750	-93.418457	238.816879	1356.767944	-40.150429	-89.747948	1715.485229	-88.309540	-302.382904	1047.920410	-21.082649	118.109497	1170.272949	-101.134521	-285.700562	919.294006	-19.477842	-293.161896	1166.953125	-61.378658	-186.500626	565.589417	-20.934801	-101.845634	1789.592651	40.222389	182.323593	662.312866	-17.109556	276.045288	873.565002	90.821930	256.244202	889.132507	116.696030	174.611374	549.043884	-14.997179	0.294016	1373.654419	-138.878922	-117.147133	1156.278442	-118.078209	-257.894470	1361.573975	-61.129311	-11.001171	1484.851318	65.906120	-296.443085	872.251404	75.871170	-161.990219	650.572937	41.922092	-156.628937	1508.825928	-1.920350	260.495270	1055.604004	48.172840	-201.864014	1011.548645	-63.619179	25.159143	1795.298950	60.354027	184.248886	981.085022	-22.445534	-137.207123	753.553223	65.235794	-142.549805	1094.070801	85.880249	112.268631	629.639832	48.167141	126.548233	1507.204590	19.379078	-4.636334	1348.936401	110.079323	-265.071411	946.186951	56.235630	209.489212	934.792786	97.032906	117.941200	1090.452026	86.179588																																																																																																																																																																																																																																																																																																																																																																																																																																																																																																																																																																																																															
2	0.016667				163.396866	84.009865	96.074417	-35.351044	1842.709229	-31.600286	-178.041122	79.123703	83.173813	129.191162	67.230545	-191.499634	126.689262	85.726761	51.399494	-204.437180	76.849686	27.069426	238.390594	1221.477661	-73.053902	-124.435677	75.975372	42.837578	-116.552872	75.462631	-194.688965	143.739899	1500.920044	-119.956375	179.575455	123.976372	-135.347305	207.858932	79.417747	42.395260	-6.772311	1552.333374	-110.304405	-179.211670	126.940247	-146.527313	-307.068695	865.642395	36.383816	195.871307	332.579559	-94.765793	263.885986	927.609314	33.005280	263.880798	1169.105469	-13.333351	-168.809174	1500.181885	-119.509239	66.066658	1733.577515	-54.894585	-239.300674	1207.096436	-115.357666	-199.333282	412.417145	-93.285316	238.792694	1356.726318	-39.945217	-89.798141	1715.386719	-87.989029	-302.554871	1047.844116	-20.886852	118.070915	1170.276245	-100.925346	-285.949463	919.171692	-19.226248	-293.321960	1166.865234	-61.071823	-186.543625	565.429871	-20.789150	-101.934509	1789.428467	40.485367	182.324677	662.313843	-17.037054	276.037628	873.554382	91.049469	256.776794	889.593018	117.217972	174.614594	549.075562	-14.925046	0.251808	1373.637329	-138.569153	-117.167488	1156.294067	-117.861603	-257.986847	1361.467896	-60.916321	-11.307149	1484.513916	65.999916	-296.642670	872.138123	76.002747	-162.066528	650.386597	42.036541	-156.713409	1508.690552	-1.699484	260.495300	1055.579102	48.389889	-201.891769	1011.533020	-63.469662	25.170658	1795.303955	60.695210	184.302856	981.180115	-22.286951	-137.232605	753.472534	65.361343	-142.588150	1093.906128	86.059418	112.288361	629.611023	48.234726	126.564034	1507.161011	19.636364	-4.750426	1348.807373	110.273918	-260.260223	944.654358	54.785351	209.479553	934.763123	97.218124	117.932083	1090.398071	86.308624																																																																																																																																																																																																																																																																																																																																																																																																																																																																																																																																																																																																															
3	0.025000				163.406174	84.011307	96.089500	-35.370083	1842.742554	-31.236164	-178.053284	79.161819	83.178947	129.193405	67.292305	-191.471588	126.668350	85.743454	51.390656	-204.443954	76.846016	27.048666	238.358002	1221.465576	-72.845116	-124.457069	75.988541	42.864876	-116.568565	75.517578	-194.653824	143.708649	1500.890015	-119.705368	179.569351	124.001984	-135.312881	207.881958	79.488846	42.390415	-6.769898	1552.344482	-109.992043	-179.239502	126.995491	-146.475998	-307.296387	865.691040	36.596329	195.869980	332.638367	-94.720055	263.869537	927.613159	33.208408	263.883423	1169.063965	-13.133660	-168.848267	1500.219604	-119.168991	66.091331	1733.650635	-54.506626	-239.428894	1207.154297	-115.090134	-199.406464	412.472137	-93.156837	238.794998	1356.709595	-39.745495	-89.840767	1715.441162	-87.676414	-302.701416	1047.880615	-20.629026	118.040131	1170.322754	-100.663086	-286.127808	919.224121	-19.047804	-293.468781	1166.963379	-60.787880	-186.565201	565.458008	-20.709175	-102.002899	1789.414917	40.793449	182.339798	662.381348	-16.924316	276.024628	873.564941	91.281380	256.740662	889.555237	117.411674	174.653137	549.131104	-14.805213	0.178515	1373.640137	-138.235840	-117.198143	1156.342041	-117.618233	-258.056702	1361.519043	-60.629211	-11.319968	1484.535767	66.288673	-296.774170	872.194336	76.184563	-162.073364	650.425720	42.176083	-156.720322	1508.738159	-1.342648	260.512756	1055.573120	48.597843	-201.953552	1011.590210	-63.272160	25.186876	1795.346680	61.110439	184.307831	981.207703	-22.099394	-137.198654	753.495361	65.499313	-142.581680	1093.933228	86.269493	112.355110	629.653992	48.377422	126.585808	1507.126343	19.883665	-4.757723	1348.796875	110.516045	-259.496857	944.248657	54.592159	209.468552	934.753906	97.415421	120.167007	1091.857788	89.034683																																																																																																																																																																																																																																																																																																																																																																																																																																																																																																																																																																																																															
4	0.033333				163.448700	84.090950	96.078812	-35.373470	1842.796021	-30.892233	-178.027542	79.213829	83.177177	129.244522	67.442093	-191.517746	126.738411	85.830330	51.405048	-204.406082	76.919785	27.050722	238.334869	1221.451904	-72.648613	-124.415482	76.101753	42.872269	-116.520203	75.638023	-194.664566	143.658051	1500.892944	-119.475739	179.546692	123.996338	-135.332840	207.950302	79.570351	42.358784	-6.762854	1552.420288	-109.696594	-179.208054	127.152435	-146.556763	-307.497162	865.775635	36.779461	195.847504	332.633667	-94.675072	263.829254	927.558899	33.370018	263.819794	1168.999146	-12.959286	-168.875641	1500.374512	-118.884949	66.049263	1733.660645	-54.193470	-239.501389	1207.272705	-114.827698	-199.420944	412.617188	-93.093010	238.765442	1356.662598	-39.560375	-89.846748	1715.553101	-87.320328	-302.852386	1048.047974	-20.381094	118.016800	1170.398804	-100.427475	-286.344177	919.414551	-18.874704	-293.564148	1167.163330	-60.554420	-186.566055	565.574951	-20.582621	-101.976128	1789.480713	41.179775	182.335297	662.385559	-16.862093	275.998016	873.507080	91.450462	256.758392	889.577454	117.588043	174.660416	549.144958	-14.766994	0.126987	1373.685181	-137.918655	-117.194557	1156.416992	-117.411560	-258.071106	1361.639771	-60.336132	-11.215725	1484.622803	66.578979	-296.959503	872.330505	76.381325	-162.035309	650.579834	42.303978	-156.629608	1508.858032	-0.882220	260.901428	1055.668579	48.902977	-201.956070	1011.633240	-63.110271	25.145596	1795.350464	61.455448	184.292984	981.203064	-21.948389	-137.134430	753.590271	65.626633	-142.501770	1094.077759	86.505188	112.346817	629.675659	48.438042	126.582878	1507.093506	20.116974	-4.711178	1348.872925	110.814804	-259.700775	944.405945	54.797218	209.454483	934.733154	97.609497	121.031937	1092.415894	90.154312																																																																																																																																																																																																																																																																																																																																																																																																																																																																																																																																																																																																															
